<svg width="24" height="24" viewBox="0 0 24 24" fill="none" xmlns="http://www.w3.org/2000/svg">
<path d="M15.5666 8.37917L10.479 13.4669L8.4333 11.4212C8.43329 11.4212 8.43328 11.4212 8.43327 11.4212C8.03683 11.0246 7.39391 11.0246 6.99746 11.4212C6.60081 11.8176 6.6008 12.4606 6.99743 12.857C6.99744 12.857 6.99745 12.8571 6.99746 12.8571L9.76108 15.6209L9.76111 15.6209C10.1577 16.0173 10.8005 16.0173 11.1971 15.6209L11.1971 15.6209L17.0026 9.81521C17.0026 9.8152 17.0026 9.81519 17.0026 9.81518C17.3993 9.41871 17.3992 8.77577 17.0026 8.37917C16.6061 7.98271 15.9632 7.98275 15.5666 8.37915L15.5666 8.37917ZM12 23.2269C18.2048 23.2269 23.2269 18.2056 23.2269 12C23.2269 5.79526 18.2056 0.773096 12 0.773096C5.79526 0.773096 0.773096 5.7944 0.773096 12C0.773096 18.2048 5.7944 23.2269 12 23.2269ZM12 2.80386C17.0826 2.80386 21.1962 6.91676 21.1962 12C21.1962 17.0826 17.0833 21.1962 12 21.1962C6.91742 21.1962 2.80386 17.0833 2.80386 12C2.80386 6.91742 6.91676 2.80386 12 2.80386Z" fill="#E95533" stroke="#E95533" stroke-width="0.3"/>
</svg>
